<?xml version="1.0" standalone="no"?>
<svg
  width="600"
  height="600"
  viewBox="0 0 600 600"
  xmlns="http://www.w3.org/2000/svg"
>
  <g transform="translate(300,300)">
    <path d="M62.9,-114C77.9,-75.6,84.1,-52.5,97.4,-27.8C110.6,-3.2,130.9,23,129.5,46.6C128,70.2,104.9,91.3,79.7,126C54.5,160.6,27.2,208.8,-10.6,223.4C-48.4,237.9,-96.8,218.9,-115.7,182.2C-134.5,145.5,-123.8,91.1,-129.3,48.2C-134.7,5.3,-156.3,-26.3,-162.1,-66.4C-167.9,-106.5,-158,-155.2,-128.4,-188.9C-98.7,-222.6,-49.4,-241.3,-12.7,-223.8C23.9,-206.2,47.8,-152.5,62.9,-114Z" fill="#FFF5C6" />
  </g>
</svg>
  