<?xml version="1.0" standalone="no"?>
<svg
  width="600"
  height="600"
  viewBox="0 0 600 600"
  xmlns="http://www.w3.org/2000/svg"
>
  <g transform="translate(300,300)">
    <path d="M62.9,-80.7C108.5,-53.4,191.2,-71.2,227.3,-52.1C263.4,-33.1,253,22.9,227.7,65.7C202.4,108.6,162.3,138.5,121.9,166.8C81.5,195.2,40.8,222.1,0.4,221.6C-40,221,-79.9,193,-126.7,166.7C-173.5,140.4,-227,115.8,-243.2,76.5C-259.3,37.3,-238.1,-16.6,-197.3,-40C-156.5,-63.4,-96.2,-56.4,-60,-86.8C-23.9,-117.2,-12,-185.1,-1.7,-182.8C8.6,-180.5,17.2,-108.1,62.9,-80.7Z" fill="#87a1a5" />
  </g>
</svg>
  