<?xml version="1.0" standalone="no"?>
<svg
  width="600"
  height="600"
  viewBox="0 0 600 600"
  xmlns="http://www.w3.org/2000/svg"
>
  <g transform="translate(300,300)">
    <path d="M109,-172.1C132.7,-132.9,137.2,-89.5,144.2,-50.9C151.2,-12.3,160.7,21.5,160.1,60.9C159.5,100.2,148.8,145.2,120.5,168.8C92.1,192.4,46,194.7,10.8,179.9C-24.5,165,-49,133.1,-80,110.3C-111.1,87.6,-148.8,74.1,-161.9,49C-175,23.9,-163.6,-12.8,-140.4,-33.8C-117.3,-54.8,-82.5,-60.2,-57.1,-98.8C-31.7,-137.4,-15.9,-209.2,13.4,-227.6C42.7,-246.1,85.4,-211.2,109,-172.1Z" fill="#87a1a5" />
  </g>
</svg>
  