<?xml version="1.0" standalone="no"?>
<svg
  width="600"
  height="600"
  viewBox="0 0 600 600"
  xmlns="http://www.w3.org/2000/svg"
>
  <g transform="translate(300,300)">
    <path d="M135,-154.5C169.7,-160.6,189,-114.2,208.9,-65C228.9,-15.9,249.5,35.9,235.7,76.1C222,116.2,173.9,144.7,128.9,179.2C83.9,213.8,41.9,254.4,-8.3,265.8C-58.6,277.3,-117.2,259.6,-157.1,223.4C-197.1,187.2,-218.4,132.5,-228.5,79.4C-238.7,26.3,-237.8,-25.3,-218.1,-66.2C-198.4,-107.1,-160.1,-137.3,-120.6,-129.6C-81.1,-122,-40.6,-76.5,4.8,-83.1C50.2,-89.7,100.3,-148.4,135,-154.5Z" fill="#87a1a5" />
  </g>
</svg>
  